<svg width="475" height="83" viewBox="0 0 475 83" fill="none" xmlns="http://www.w3.org/2000/svg">
<rect width="475" height="83" rx="6" fill="#FEFCE8"/>
<g clip-path="url(#clip0_26099_63663)">
<path d="M24.9819 20.566C24.883 20.3935 24.7402 20.2503 24.5682 20.1506C24.3961 20.051 24.2008 19.9985 24.0019 19.9985C23.8031 19.9985 23.6078 20.051 23.4357 20.1506C23.2637 20.2503 23.1209 20.3935 23.0219 20.566L16.1649 32.233C15.7079 33.011 16.2559 34 17.1449 34H30.8579C31.7469 34 32.2959 33.01 31.8379 32.233L24.9819 20.566ZM23.9999 24C24.5349 24 24.9539 24.462 24.8999 24.995L24.5499 28.502C24.5382 28.6397 24.4751 28.7681 24.3733 28.8616C24.2715 28.9551 24.1382 29.007 23.9999 29.007C23.8617 29.007 23.7284 28.9551 23.6266 28.8616C23.5247 28.7681 23.4617 28.6397 23.4499 28.502L23.0999 24.995C23.0874 24.8692 23.1013 24.7422 23.1408 24.6221C23.1803 24.5021 23.2445 24.3916 23.3293 24.2979C23.4141 24.2041 23.5176 24.1292 23.6331 24.0779C23.7486 24.0266 23.8736 24 23.9999 24ZM24.0019 30C24.2672 30 24.5215 30.1053 24.7091 30.2928C24.8966 30.4804 25.0019 30.7347 25.0019 31C25.0019 31.2652 24.8966 31.5195 24.7091 31.7071C24.5215 31.8946 24.2672 32 24.0019 32C23.7367 32 23.4824 31.8946 23.2948 31.7071C23.1073 31.5195 23.0019 31.2652 23.0019 31C23.0019 30.7347 23.1073 30.4804 23.2948 30.2928C23.4824 30.1053 23.7367 30 24.0019 30Z" fill="#FACC15"/>
</g>
<path d="M64.4964 25.326H62.1058C62.0376 24.9339 61.9119 24.5866 61.7287 24.2841C61.5455 23.9773 61.3175 23.7173 61.0447 23.5043C60.772 23.2912 60.4609 23.1314 60.1115 23.0249C59.7663 22.9141 59.3935 22.8587 58.9929 22.8587C58.2813 22.8587 57.6506 23.0376 57.1009 23.3956C56.5511 23.7493 56.1207 24.2692 55.8097 24.9553C55.4986 25.6371 55.343 26.4702 55.343 27.4545C55.343 28.456 55.4986 29.2997 55.8097 29.9858C56.125 30.6676 56.5554 31.1832 57.1009 31.5327C57.6506 31.8778 58.2791 32.0504 58.9865 32.0504C59.3786 32.0504 59.745 31.9993 60.0859 31.897C60.4311 31.7905 60.7401 31.6349 61.0128 31.4304C61.2898 31.2259 61.522 30.9744 61.7095 30.6761C61.9013 30.3778 62.0334 30.0369 62.1058 29.6534L64.4964 29.6662C64.407 30.2884 64.2131 30.8722 63.9148 31.4176C63.6207 31.9631 63.2351 32.4446 62.7578 32.8622C62.2805 33.2756 61.7223 33.5994 61.0831 33.8338C60.4439 34.0639 59.7344 34.179 58.9545 34.179C57.804 34.179 56.777 33.9126 55.8736 33.38C54.9702 32.8473 54.2585 32.0781 53.7386 31.0724C53.2188 30.0668 52.9588 28.8608 52.9588 27.4545C52.9588 26.044 53.2209 24.8381 53.745 23.8366C54.2692 22.831 54.983 22.0618 55.8864 21.5291C56.7898 20.9964 57.8125 20.7301 58.9545 20.7301C59.6832 20.7301 60.3608 20.8324 60.9872 21.0369C61.6136 21.2415 62.1719 21.5419 62.6619 21.9382C63.152 22.3303 63.5547 22.8118 63.87 23.3828C64.1896 23.9496 64.3984 24.5973 64.4964 25.326ZM69.4812 34.1982C68.859 34.1982 68.2986 34.0874 67.8 33.8658C67.3057 33.6399 66.9137 33.3075 66.6239 32.8686C66.3384 32.4297 66.1956 31.8885 66.1956 31.245C66.1956 30.6911 66.2979 30.233 66.5025 29.8707C66.707 29.5085 66.9861 29.2188 67.3398 29.0014C67.6935 28.7841 68.092 28.62 68.5351 28.5092C68.9826 28.3942 69.4449 28.3111 69.9222 28.2599C70.4975 28.2003 70.9641 28.147 71.3221 28.1001C71.68 28.049 71.94 27.9723 72.1019 27.87C72.2681 27.7635 72.3512 27.5994 72.3512 27.3778V27.3395C72.3512 26.858 72.2084 26.4851 71.9229 26.2209C71.6374 25.9567 71.2262 25.8246 70.6893 25.8246C70.1225 25.8246 69.6729 25.9482 69.3405 26.1953C69.0124 26.4425 68.7908 26.7344 68.6758 27.071L66.5152 26.7642C66.6857 26.1676 66.967 25.669 67.359 25.2685C67.751 24.8636 68.2304 24.5611 68.7972 24.3608C69.364 24.1562 69.9904 24.054 70.6765 24.054C71.1495 24.054 71.6204 24.1094 72.0891 24.2202C72.5579 24.331 72.9861 24.5142 73.3739 24.7699C73.7617 25.0213 74.0728 25.3643 74.3072 25.799C74.5458 26.2337 74.6651 26.777 74.6651 27.429V34H72.4407V32.6513H72.364C72.2233 32.924 72.0252 33.1797 71.7695 33.4183C71.5181 33.6527 71.2006 33.8423 70.8171 33.9872C70.4378 34.1278 69.9925 34.1982 69.4812 34.1982ZM70.082 32.4979C70.5465 32.4979 70.9492 32.4062 71.2901 32.223C71.631 32.0355 71.8931 31.7884 72.0763 31.4815C72.2638 31.1747 72.3576 30.8402 72.3576 30.478V29.321C72.2851 29.3807 72.1616 29.4361 71.9868 29.4872C71.8164 29.5384 71.6246 29.5831 71.4116 29.6214C71.1985 29.6598 70.9875 29.6939 70.7787 29.7237C70.5699 29.7536 70.3888 29.7791 70.2354 29.8004C69.8902 29.8473 69.5813 29.924 69.3086 30.0305C69.0358 30.1371 68.8206 30.2862 68.663 30.478C68.5053 30.6655 68.4265 30.9084 68.4265 31.2067C68.4265 31.6328 68.582 31.9545 68.8931 32.1719C69.2042 32.3892 69.6005 32.4979 70.082 32.4979ZM79.3957 28.2472V34H77.0818V24.1818H79.2935V25.8501H79.4085C79.6344 25.3004 79.9945 24.8636 80.4888 24.5398C80.9874 24.2159 81.6031 24.054 82.3361 24.054C83.0136 24.054 83.6038 24.1989 84.1067 24.4886C84.6138 24.7784 85.0058 25.1982 85.2828 25.7479C85.5641 26.2976 85.7026 26.9645 85.6983 27.7486V34H83.3844V28.1065C83.3844 27.4503 83.2139 26.9368 82.873 26.5661C82.5364 26.1953 82.0697 26.0099 81.4731 26.0099C81.0683 26.0099 80.7082 26.0994 80.3929 26.2784C80.0818 26.4531 79.8368 26.7067 79.6578 27.0391C79.4831 27.3714 79.3957 27.7741 79.3957 28.2472ZM90.4545 28.2472V34H88.1406V24.1818H90.3522V25.8501H90.4673C90.6931 25.3004 91.0532 24.8636 91.5475 24.5398C92.0461 24.2159 92.6619 24.054 93.3948 24.054C94.0724 24.054 94.6626 24.1989 95.1654 24.4886C95.6725 24.7784 96.0646 25.1982 96.3416 25.7479C96.6228 26.2976 96.7613 26.9645 96.757 27.7486V34H94.4431V28.1065C94.4431 27.4503 94.2727 26.9368 93.9318 26.5661C93.5951 26.1953 93.1285 26.0099 92.5319 26.0099C92.1271 26.0099 91.767 26.0994 91.4516 26.2784C91.1406 26.4531 90.8955 26.7067 90.7166 27.0391C90.5418 27.3714 90.4545 27.7741 90.4545 28.2472ZM103.482 34.1918C102.523 34.1918 101.692 33.9808 100.989 33.5589C100.286 33.1371 99.7405 32.5469 99.3527 31.7884C98.9692 31.0298 98.7774 30.1435 98.7774 29.1293C98.7774 28.1151 98.9692 27.2266 99.3527 26.4638C99.7405 25.701 100.286 25.1087 100.989 24.6868C101.692 24.2649 102.523 24.054 103.482 24.054C104.441 24.054 105.272 24.2649 105.975 24.6868C106.678 25.1087 107.221 25.701 107.605 26.4638C107.993 27.2266 108.187 28.1151 108.187 29.1293C108.187 30.1435 107.993 31.0298 107.605 31.7884C107.221 32.5469 106.678 33.1371 105.975 33.5589C105.272 33.9808 104.441 34.1918 103.482 34.1918ZM103.495 32.3381C104.015 32.3381 104.449 32.1953 104.799 31.9098C105.148 31.62 105.408 31.2322 105.579 30.7464C105.753 30.2607 105.841 29.7195 105.841 29.1229C105.841 28.522 105.753 27.9787 105.579 27.4929C105.408 27.0028 105.148 26.6129 104.799 26.3232C104.449 26.0334 104.015 25.8885 103.495 25.8885C102.962 25.8885 102.519 26.0334 102.165 26.3232C101.816 26.6129 101.554 27.0028 101.379 27.4929C101.209 27.9787 101.123 28.522 101.123 29.1229C101.123 29.7195 101.209 30.2607 101.379 30.7464C101.554 31.2322 101.816 31.62 102.165 31.9098C102.519 32.1953 102.962 32.3381 103.495 32.3381ZM115.143 24.1818V25.9716H109.499V24.1818H115.143ZM110.892 21.8295H113.206V31.0469C113.206 31.358 113.253 31.5966 113.347 31.7628C113.445 31.9247 113.573 32.0355 113.731 32.0952C113.888 32.1548 114.063 32.1847 114.255 32.1847C114.4 32.1847 114.532 32.174 114.651 32.1527C114.775 32.1314 114.868 32.1122 114.932 32.0952L115.322 33.9041C115.199 33.9467 115.022 33.9936 114.792 34.0447C114.566 34.0959 114.289 34.1257 113.961 34.1342C113.381 34.1513 112.859 34.0639 112.395 33.8722C111.93 33.6761 111.562 33.3736 111.289 32.9645C111.02 32.5554 110.888 32.044 110.892 31.4304V21.8295ZM126.006 34.1918C125.026 34.1918 124.184 33.9766 123.481 33.5462C122.782 33.1158 122.243 32.5213 121.864 31.7628C121.489 31 121.301 30.1222 121.301 29.1293C121.301 28.1321 121.493 27.2521 121.877 26.4893C122.26 25.7223 122.801 25.1257 123.5 24.6996C124.203 24.2692 125.034 24.054 125.993 24.054C126.79 24.054 127.495 24.201 128.109 24.495C128.727 24.7848 129.219 25.196 129.585 25.7287C129.952 26.2571 130.161 26.875 130.212 27.5824H128C127.911 27.1094 127.698 26.7152 127.361 26.3999C127.029 26.0803 126.583 25.9205 126.025 25.9205C125.552 25.9205 125.137 26.0483 124.779 26.304C124.421 26.5554 124.142 26.9176 123.941 27.3906C123.745 27.8636 123.647 28.4304 123.647 29.0909C123.647 29.7599 123.745 30.3352 123.941 30.8168C124.137 31.294 124.412 31.6626 124.766 31.9226C125.124 32.1783 125.544 32.3061 126.025 32.3061C126.366 32.3061 126.671 32.2422 126.939 32.1143C127.212 31.9822 127.44 31.7926 127.623 31.5455C127.806 31.2983 127.932 30.9979 128 30.6442H130.212C130.156 31.3388 129.952 31.9545 129.598 32.4915C129.245 33.0241 128.763 33.4418 128.154 33.7443C127.544 34.0426 126.828 34.1918 126.006 34.1918ZM136.485 34.1918C135.526 34.1918 134.695 33.9808 133.992 33.5589C133.289 33.1371 132.743 32.5469 132.355 31.7884C131.972 31.0298 131.78 30.1435 131.78 29.1293C131.78 28.1151 131.972 27.2266 132.355 26.4638C132.743 25.701 133.289 25.1087 133.992 24.6868C134.695 24.2649 135.526 24.054 136.485 24.054C137.443 24.054 138.274 24.2649 138.977 24.6868C139.681 25.1087 140.224 25.701 140.607 26.4638C140.995 27.2266 141.189 28.1151 141.189 29.1293C141.189 30.1435 140.995 31.0298 140.607 31.7884C140.224 32.5469 139.681 33.1371 138.977 33.5589C138.274 33.9808 137.443 34.1918 136.485 34.1918ZM136.497 32.3381C137.017 32.3381 137.452 32.1953 137.801 31.9098C138.151 31.62 138.411 31.2322 138.581 30.7464C138.756 30.2607 138.843 29.7195 138.843 29.1229C138.843 28.522 138.756 27.9787 138.581 27.4929C138.411 27.0028 138.151 26.6129 137.801 26.3232C137.452 26.0334 137.017 25.8885 136.497 25.8885C135.965 25.8885 135.521 26.0334 135.168 26.3232C134.818 26.6129 134.556 27.0028 134.382 27.4929C134.211 27.9787 134.126 28.522 134.126 29.1229C134.126 29.7195 134.211 30.2607 134.382 30.7464C134.556 31.2322 134.818 31.62 135.168 31.9098C135.521 32.1953 135.965 32.3381 136.497 32.3381ZM145.557 28.2472V34H143.243V24.1818H145.455V25.8501H145.57C145.796 25.3004 146.156 24.8636 146.65 24.5398C147.149 24.2159 147.764 24.054 148.497 24.054C149.175 24.054 149.765 24.1989 150.268 24.4886C150.775 24.7784 151.167 25.1982 151.444 25.7479C151.725 26.2976 151.864 26.9645 151.86 27.7486V34H149.546V28.1065C149.546 27.4503 149.375 26.9368 149.034 26.5661C148.698 26.1953 148.231 26.0099 147.634 26.0099C147.23 26.0099 146.869 26.0994 146.554 26.2784C146.243 26.4531 145.998 26.7067 145.819 27.0391C145.644 27.3714 145.557 27.7741 145.557 28.2472ZM156.616 28.2472V34H154.302V24.1818H156.513V25.8501H156.629C156.854 25.3004 157.214 24.8636 157.709 24.5398C158.207 24.2159 158.823 24.054 159.556 24.054C160.234 24.054 160.824 24.1989 161.327 24.4886C161.834 24.7784 162.226 25.1982 162.503 25.7479C162.784 26.2976 162.923 26.9645 162.918 27.7486V34H160.604V28.1065C160.604 27.4503 160.434 26.9368 160.093 26.5661C159.756 26.1953 159.29 26.0099 158.693 26.0099C158.288 26.0099 157.928 26.0994 157.613 26.2784C157.302 26.4531 157.057 26.7067 156.878 27.0391C156.703 27.3714 156.616 27.7741 156.616 28.2472ZM169.707 34.1918C168.723 34.1918 167.873 33.9872 167.157 33.5781C166.445 33.1648 165.897 32.581 165.514 31.8267C165.13 31.0682 164.939 30.1754 164.939 29.1484C164.939 28.1385 165.13 27.2521 165.514 26.4893C165.902 25.7223 166.443 25.1257 167.138 24.6996C167.832 24.2692 168.648 24.054 169.586 24.054C170.191 24.054 170.762 24.152 171.299 24.348C171.84 24.5398 172.317 24.8381 172.731 25.2429C173.148 25.6477 173.476 26.1634 173.715 26.7898C173.954 27.4119 174.073 28.1534 174.073 29.0142V29.7237H166.025V28.1641H171.855C171.851 27.7209 171.755 27.3267 171.567 26.9815C171.38 26.6321 171.118 26.3572 170.781 26.157C170.449 25.9567 170.061 25.8565 169.618 25.8565C169.145 25.8565 168.729 25.9716 168.371 26.2017C168.013 26.4276 167.734 26.7259 167.534 27.0966C167.338 27.4631 167.238 27.8658 167.233 28.3047V29.6662C167.233 30.2372 167.338 30.7273 167.547 31.1364C167.755 31.5412 168.047 31.8523 168.422 32.0696C168.797 32.2827 169.236 32.3892 169.739 32.3892C170.076 32.3892 170.38 32.3423 170.653 32.2486C170.926 32.1506 171.162 32.0078 171.363 31.8203C171.563 31.6328 171.714 31.4006 171.817 31.1236L173.977 31.3665C173.841 31.9375 173.581 32.4361 173.197 32.8622C172.818 33.2841 172.332 33.6122 171.74 33.8466C171.147 34.0767 170.47 34.1918 169.707 34.1918ZM180.403 34.1918C179.423 34.1918 178.581 33.9766 177.878 33.5462C177.179 33.1158 176.64 32.5213 176.261 31.7628C175.886 31 175.699 30.1222 175.699 29.1293C175.699 28.1321 175.89 27.2521 176.274 26.4893C176.657 25.7223 177.199 25.1257 177.897 24.6996C178.601 24.2692 179.432 24.054 180.39 24.054C181.187 24.054 181.893 24.201 182.506 24.495C183.124 24.7848 183.616 25.196 183.983 25.7287C184.349 26.2571 184.558 26.875 184.609 27.5824H182.397C182.308 27.1094 182.095 26.7152 181.758 26.3999C181.426 26.0803 180.981 25.9205 180.422 25.9205C179.949 25.9205 179.534 26.0483 179.176 26.304C178.818 26.5554 178.539 26.9176 178.339 27.3906C178.143 27.8636 178.044 28.4304 178.044 29.0909C178.044 29.7599 178.143 30.3352 178.339 30.8168C178.535 31.294 178.809 31.6626 179.163 31.9226C179.521 32.1783 179.941 32.3061 180.422 32.3061C180.763 32.3061 181.068 32.2422 181.336 32.1143C181.609 31.9822 181.837 31.7926 182.02 31.5455C182.204 31.2983 182.329 30.9979 182.397 30.6442H184.609C184.554 31.3388 184.349 31.9545 183.995 32.4915C183.642 33.0241 183.16 33.4418 182.551 33.7443C181.942 34.0426 181.226 34.1918 180.403 34.1918ZM191.502 24.1818V25.9716H185.858V24.1818H191.502ZM187.251 21.8295H189.565V31.0469C189.565 31.358 189.612 31.5966 189.706 31.7628C189.804 31.9247 189.932 32.0355 190.089 32.0952C190.247 32.1548 190.422 32.1847 190.613 32.1847C190.758 32.1847 190.89 32.174 191.01 32.1527C191.133 32.1314 191.227 32.1122 191.291 32.0952L191.681 33.9041C191.557 33.9467 191.38 33.9936 191.15 34.0447C190.924 34.0959 190.647 34.1257 190.319 34.1342C189.74 34.1513 189.218 34.0639 188.753 33.8722C188.289 33.6761 187.92 33.3736 187.647 32.9645C187.379 32.5554 187.247 32.044 187.251 31.4304V21.8295ZM202.985 24.1818V25.9716H197.34V24.1818H202.985ZM198.734 21.8295H201.048V31.0469C201.048 31.358 201.095 31.5966 201.188 31.7628C201.286 31.9247 201.414 32.0355 201.572 32.0952C201.73 32.1548 201.904 32.1847 202.096 32.1847C202.241 32.1847 202.373 32.174 202.492 32.1527C202.616 32.1314 202.71 32.1122 202.774 32.0952L203.164 33.9041C203.04 33.9467 202.863 33.9936 202.633 34.0447C202.407 34.0959 202.13 34.1257 201.802 34.1342C201.223 34.1513 200.701 34.0639 200.236 33.8722C199.772 33.6761 199.403 33.3736 199.13 32.9645C198.862 32.5554 198.73 32.044 198.734 31.4304V21.8295ZM209.187 34.1918C208.228 34.1918 207.397 33.9808 206.694 33.5589C205.991 33.1371 205.446 32.5469 205.058 31.7884C204.674 31.0298 204.482 30.1435 204.482 29.1293C204.482 28.1151 204.674 27.2266 205.058 26.4638C205.446 25.701 205.991 25.1087 206.694 24.6868C207.397 24.2649 208.228 24.054 209.187 24.054C210.146 24.054 210.977 24.2649 211.68 24.6868C212.383 25.1087 212.926 25.701 213.31 26.4638C213.698 27.2266 213.892 28.1151 213.892 29.1293C213.892 30.1435 213.698 31.0298 213.31 31.7884C212.926 32.5469 212.383 33.1371 211.68 33.5589C210.977 33.9808 210.146 34.1918 209.187 34.1918ZM209.2 32.3381C209.72 32.3381 210.154 32.1953 210.504 31.9098C210.853 31.62 211.113 31.2322 211.284 30.7464C211.458 30.2607 211.546 29.7195 211.546 29.1229C211.546 28.522 211.458 27.9787 211.284 27.4929C211.113 27.0028 210.853 26.6129 210.504 26.3232C210.154 26.0334 209.72 25.8885 209.2 25.8885C208.667 25.8885 208.224 26.0334 207.87 26.3232C207.521 26.6129 207.259 27.0028 207.084 27.4929C206.914 27.9787 206.828 28.522 206.828 29.1229C206.828 29.7195 206.914 30.2607 207.084 30.7464C207.259 31.2322 207.521 31.62 207.87 31.9098C208.224 32.1953 208.667 32.3381 209.2 32.3381ZM225.403 24.1818V25.9716H219.759V24.1818H225.403ZM221.152 21.8295H223.466V31.0469C223.466 31.358 223.513 31.5966 223.607 31.7628C223.705 31.9247 223.833 32.0355 223.99 32.0952C224.148 32.1548 224.323 32.1847 224.515 32.1847C224.659 32.1847 224.792 32.174 224.911 32.1527C225.034 32.1314 225.128 32.1122 225.192 32.0952L225.582 33.9041C225.458 33.9467 225.282 33.9936 225.051 34.0447C224.826 34.0959 224.549 34.1257 224.22 34.1342C223.641 34.1513 223.119 34.0639 222.654 33.8722C222.19 33.6761 221.821 33.3736 221.549 32.9645C221.28 32.5554 221.148 32.044 221.152 31.4304V21.8295ZM229.953 28.2472V34H227.639V20.9091H229.902V25.8501H230.017C230.247 25.2962 230.603 24.8594 231.084 24.5398C231.57 24.2159 232.188 24.054 232.938 24.054C233.62 24.054 234.214 24.1967 234.722 24.4822C235.229 24.7678 235.621 25.1854 235.898 25.7351C236.179 26.2848 236.32 26.956 236.32 27.7486V34H234.006V28.1065C234.006 27.446 233.835 26.9325 233.494 26.5661C233.158 26.1953 232.685 26.0099 232.075 26.0099C231.666 26.0099 231.3 26.0994 230.976 26.2784C230.656 26.4531 230.405 26.7067 230.222 27.0391C230.043 27.3714 229.953 27.7741 229.953 28.2472ZM243.115 34.1918C242.13 34.1918 241.28 33.9872 240.564 33.5781C239.853 33.1648 239.305 32.581 238.922 31.8267C238.538 31.0682 238.346 30.1754 238.346 29.1484C238.346 28.1385 238.538 27.2521 238.922 26.4893C239.309 25.7223 239.851 25.1257 240.545 24.6996C241.24 24.2692 242.056 24.054 242.993 24.054C243.598 24.054 244.169 24.152 244.706 24.348C245.248 24.5398 245.725 24.8381 246.138 25.2429C246.556 25.6477 246.884 26.1634 247.123 26.7898C247.361 27.4119 247.481 28.1534 247.481 29.0142V29.7237H239.433V28.1641H245.263C245.258 27.7209 245.162 27.3267 244.975 26.9815C244.787 26.6321 244.525 26.3572 244.189 26.157C243.856 25.9567 243.469 25.8565 243.025 25.8565C242.552 25.8565 242.137 25.9716 241.779 26.2017C241.421 26.4276 241.142 26.7259 240.942 27.0966C240.745 27.4631 240.645 27.8658 240.641 28.3047V29.6662C240.641 30.2372 240.745 30.7273 240.954 31.1364C241.163 31.5412 241.455 31.8523 241.83 32.0696C242.205 32.2827 242.644 32.3892 243.147 32.3892C243.483 32.3892 243.788 32.3423 244.061 32.2486C244.334 32.1506 244.57 32.0078 244.77 31.8203C244.971 31.6328 245.122 31.4006 245.224 31.1236L247.385 31.3665C247.248 31.9375 246.988 32.4361 246.605 32.8622C246.226 33.2841 245.74 33.6122 245.147 33.8466C244.555 34.0767 243.878 34.1918 243.115 34.1918ZM257.726 34.1726C256.955 34.1726 256.265 33.9744 255.655 33.5781C255.046 33.1818 254.565 32.6065 254.211 31.8523C253.857 31.098 253.68 30.1818 253.68 29.1037C253.68 28.0128 253.859 27.0923 254.217 26.3423C254.579 25.5881 255.067 25.0192 255.681 24.6357C256.295 24.2479 256.979 24.054 257.733 24.054C258.308 24.054 258.781 24.152 259.152 24.348C259.523 24.5398 259.817 24.772 260.034 25.0447C260.251 25.3132 260.42 25.5668 260.539 25.8054H260.635V20.9091H262.955V34H260.68V32.4531H260.539C260.42 32.6918 260.247 32.9453 260.021 33.2138C259.795 33.478 259.497 33.7038 259.126 33.8913C258.756 34.0788 258.289 34.1726 257.726 34.1726ZM258.372 32.2741C258.862 32.2741 259.28 32.142 259.625 31.8778C259.97 31.6094 260.232 31.2365 260.411 30.7592C260.59 30.282 260.68 29.7259 260.68 29.0909C260.68 28.456 260.59 27.9041 260.411 27.4354C260.236 26.9666 259.976 26.6023 259.631 26.3423C259.29 26.0824 258.871 25.9524 258.372 25.9524C257.856 25.9524 257.426 26.0866 257.081 26.3551C256.736 26.6236 256.476 26.9943 256.301 27.4673C256.126 27.9403 256.039 28.4815 256.039 29.0909C256.039 29.7045 256.126 30.2521 256.301 30.7337C256.48 31.2109 256.742 31.5881 257.087 31.8651C257.437 32.1378 257.865 32.2741 258.372 32.2741ZM268.336 34.1982C267.714 34.1982 267.154 34.0874 266.655 33.8658C266.161 33.6399 265.769 33.3075 265.479 32.8686C265.193 32.4297 265.051 31.8885 265.051 31.245C265.051 30.6911 265.153 30.233 265.357 29.8707C265.562 29.5085 265.841 29.2188 266.195 29.0014C266.549 28.7841 266.947 28.62 267.39 28.5092C267.838 28.3942 268.3 28.3111 268.777 28.2599C269.353 28.2003 269.819 28.147 270.177 28.1001C270.535 28.049 270.795 27.9723 270.957 27.87C271.123 27.7635 271.206 27.5994 271.206 27.3778V27.3395C271.206 26.858 271.063 26.4851 270.778 26.2209C270.492 25.9567 270.081 25.8246 269.544 25.8246C268.978 25.8246 268.528 25.9482 268.196 26.1953C267.867 26.4425 267.646 26.7344 267.531 27.071L265.37 26.7642C265.541 26.1676 265.822 25.669 266.214 25.2685C266.606 24.8636 267.085 24.5611 267.652 24.3608C268.219 24.1562 268.845 24.054 269.531 24.054C270.004 24.054 270.475 24.1094 270.944 24.2202C271.413 24.331 271.841 24.5142 272.229 24.7699C272.617 25.0213 272.928 25.3643 273.162 25.799C273.401 26.2337 273.52 26.777 273.52 27.429V34H271.296V32.6513H271.219C271.078 32.924 270.88 33.1797 270.625 33.4183C270.373 33.6527 270.056 33.8423 269.672 33.9872C269.293 34.1278 268.848 34.1982 268.336 34.1982ZM268.937 32.4979C269.402 32.4979 269.804 32.4062 270.145 32.223C270.486 32.0355 270.748 31.7884 270.931 31.4815C271.119 31.1747 271.213 30.8402 271.213 30.478V29.321C271.14 29.3807 271.017 29.4361 270.842 29.4872C270.671 29.5384 270.48 29.5831 270.267 29.6214C270.053 29.6598 269.843 29.6939 269.634 29.7237C269.425 29.7536 269.244 29.7791 269.09 29.8004C268.745 29.8473 268.436 29.924 268.164 30.0305C267.891 30.1371 267.676 30.2862 267.518 30.478C267.36 30.6655 267.281 30.9084 267.281 31.2067C267.281 31.6328 267.437 31.9545 267.748 32.1719C268.059 32.3892 268.455 32.4979 268.937 32.4979ZM280.84 24.1818V25.9716H275.195V24.1818H280.84ZM276.589 21.8295H278.903V31.0469C278.903 31.358 278.95 31.5966 279.043 31.7628C279.141 31.9247 279.269 32.0355 279.427 32.0952C279.585 32.1548 279.759 32.1847 279.951 32.1847C280.096 32.1847 280.228 32.174 280.347 32.1527C280.471 32.1314 280.565 32.1122 280.629 32.0952L281.018 33.9041C280.895 33.9467 280.718 33.9936 280.488 34.0447C280.262 34.0959 279.985 34.1257 279.657 34.1342C279.077 34.1513 278.555 34.0639 278.091 33.8722C277.626 33.6761 277.258 33.3736 276.985 32.9645C276.717 32.5554 276.585 32.044 276.589 31.4304V21.8295ZM285.69 34.1982C285.068 34.1982 284.507 34.0874 284.009 33.8658C283.515 33.6399 283.123 33.3075 282.833 32.8686C282.547 32.4297 282.404 31.8885 282.404 31.245C282.404 30.6911 282.507 30.233 282.711 29.8707C282.916 29.5085 283.195 29.2188 283.549 29.0014C283.902 28.7841 284.301 28.62 284.744 28.5092C285.191 28.3942 285.654 28.3111 286.131 28.2599C286.706 28.2003 287.173 28.147 287.531 28.1001C287.889 28.049 288.149 27.9723 288.311 27.87C288.477 27.7635 288.56 27.5994 288.56 27.3778V27.3395C288.56 26.858 288.417 26.4851 288.132 26.2209C287.846 25.9567 287.435 25.8246 286.898 25.8246C286.331 25.8246 285.882 25.9482 285.549 26.1953C285.221 26.4425 285 26.7344 284.885 27.071L282.724 26.7642C282.895 26.1676 283.176 25.669 283.568 25.2685C283.96 24.8636 284.439 24.5611 285.006 24.3608C285.573 24.1562 286.199 24.054 286.885 24.054C287.358 24.054 287.829 24.1094 288.298 24.2202C288.767 24.331 289.195 24.5142 289.583 24.7699C289.971 25.0213 290.282 25.3643 290.516 25.799C290.755 26.2337 290.874 26.777 290.874 27.429V34H288.65V32.6513H288.573C288.432 32.924 288.234 33.1797 287.978 33.4183C287.727 33.6527 287.409 33.8423 287.026 33.9872C286.647 34.1278 286.201 34.1982 285.69 34.1982ZM286.291 32.4979C286.755 32.4979 287.158 32.4062 287.499 32.223C287.84 32.0355 288.102 31.7884 288.285 31.4815C288.473 31.1747 288.566 30.8402 288.566 30.478V29.321C288.494 29.3807 288.37 29.4361 288.196 29.4872C288.025 29.5384 287.833 29.5831 287.62 29.6214C287.407 29.6598 287.196 29.6939 286.988 29.7237C286.779 29.7536 286.598 29.7791 286.444 29.8004C286.099 29.8473 285.79 29.924 285.517 30.0305C285.245 30.1371 285.029 30.2862 284.872 30.478C284.714 30.6655 284.635 30.9084 284.635 31.2067C284.635 31.6328 284.791 31.9545 285.102 32.1719C285.413 32.3892 285.809 32.4979 286.291 32.4979ZM293.393 34V20.9091H295.707V25.8054H295.803C295.922 25.5668 296.09 25.3132 296.308 25.0447C296.525 24.772 296.819 24.5398 297.19 24.348C297.561 24.152 298.034 24.054 298.609 24.054C299.367 24.054 300.051 24.2479 300.661 24.6357C301.274 25.0192 301.76 25.5881 302.118 26.3423C302.48 27.0923 302.661 28.0128 302.661 29.1037C302.661 30.1818 302.485 31.098 302.131 31.8523C301.777 32.6065 301.296 33.1818 300.686 33.5781C300.077 33.9744 299.387 34.1726 298.615 34.1726C298.053 34.1726 297.586 34.0788 297.215 33.8913C296.845 33.7038 296.546 33.478 296.32 33.2138C296.099 32.9453 295.926 32.6918 295.803 32.4531H295.668V34H293.393ZM295.662 29.0909C295.662 29.7259 295.752 30.282 295.931 30.7592C296.114 31.2365 296.376 31.6094 296.717 31.8778C297.062 32.142 297.48 32.2741 297.97 32.2741C298.481 32.2741 298.909 32.1378 299.254 31.8651C299.6 31.5881 299.86 31.2109 300.034 30.7337C300.213 30.2521 300.303 29.7045 300.303 29.0909C300.303 28.4815 300.215 27.9403 300.041 27.4673C299.866 26.9943 299.606 26.6236 299.261 26.3551C298.916 26.0866 298.485 25.9524 297.97 25.9524C297.475 25.9524 297.056 26.0824 296.71 26.3423C296.365 26.6023 296.103 26.9666 295.924 27.4354C295.749 27.9041 295.662 28.456 295.662 29.0909ZM307.544 34.1982C306.922 34.1982 306.361 34.0874 305.863 33.8658C305.368 33.6399 304.976 33.3075 304.687 32.8686C304.401 32.4297 304.258 31.8885 304.258 31.245C304.258 30.6911 304.361 30.233 304.565 29.8707C304.77 29.5085 305.049 29.2188 305.402 29.0014C305.756 28.7841 306.155 28.62 306.598 28.5092C307.045 28.3942 307.508 28.3111 307.985 28.2599C308.56 28.2003 309.027 28.147 309.385 28.1001C309.743 28.049 310.003 27.9723 310.165 27.87C310.331 27.7635 310.414 27.5994 310.414 27.3778V27.3395C310.414 26.858 310.271 26.4851 309.986 26.2209C309.7 25.9567 309.289 25.8246 308.752 25.8246C308.185 25.8246 307.736 25.9482 307.403 26.1953C307.075 26.4425 306.853 26.7344 306.738 27.071L304.578 26.7642C304.748 26.1676 305.03 25.669 305.422 25.2685C305.814 24.8636 306.293 24.5611 306.86 24.3608C307.427 24.1562 308.053 24.054 308.739 24.054C309.212 24.054 309.683 24.1094 310.152 24.2202C310.621 24.331 311.049 24.5142 311.437 24.7699C311.824 25.0213 312.135 25.3643 312.37 25.799C312.608 26.2337 312.728 26.777 312.728 27.429V34H310.503V32.6513H310.427C310.286 32.924 310.088 33.1797 309.832 33.4183C309.581 33.6527 309.263 33.8423 308.88 33.9872C308.5 34.1278 308.055 34.1982 307.544 34.1982ZM308.145 32.4979C308.609 32.4979 309.012 32.4062 309.353 32.223C309.694 32.0355 309.956 31.7884 310.139 31.4815C310.326 31.1747 310.42 30.8402 310.42 30.478V29.321C310.348 29.3807 310.224 29.4361 310.049 29.4872C309.879 29.5384 309.687 29.5831 309.474 29.6214C309.261 29.6598 309.05 29.6939 308.841 29.7237C308.633 29.7536 308.451 29.7791 308.298 29.8004C307.953 29.8473 307.644 29.924 307.371 30.0305C307.098 30.1371 306.883 30.2862 306.726 30.478C306.568 30.6655 306.489 30.9084 306.489 31.2067C306.489 31.6328 306.645 31.9545 306.956 32.1719C307.267 32.3892 307.663 32.4979 308.145 32.4979ZM322.904 26.777L320.795 27.0071C320.735 26.794 320.631 26.5938 320.482 26.4062C320.337 26.2188 320.141 26.0675 319.894 25.9524C319.647 25.8374 319.344 25.7798 318.986 25.7798C318.505 25.7798 318.1 25.8842 317.772 26.093C317.448 26.3018 317.288 26.5724 317.292 26.9048C317.288 27.1903 317.392 27.4226 317.605 27.6016C317.823 27.7805 318.181 27.9276 318.679 28.0426L320.354 28.4006C321.283 28.6009 321.973 28.9183 322.425 29.353C322.881 29.7876 323.111 30.3565 323.115 31.0597C323.111 31.6776 322.93 32.223 322.572 32.696C322.218 33.1648 321.726 33.5312 321.095 33.7955C320.465 34.0597 319.74 34.1918 318.922 34.1918C317.72 34.1918 316.753 33.9403 316.02 33.4375C315.287 32.9304 314.85 32.2251 314.71 31.3217L316.966 31.1044C317.068 31.5476 317.286 31.8821 317.618 32.108C317.951 32.3338 318.383 32.4467 318.916 32.4467C319.465 32.4467 319.907 32.3338 320.239 32.108C320.576 31.8821 320.744 31.603 320.744 31.2706C320.744 30.9893 320.635 30.7571 320.418 30.5739C320.205 30.3906 319.872 30.25 319.421 30.152L317.746 29.8004C316.804 29.6044 316.108 29.2741 315.656 28.8097C315.204 28.3409 314.98 27.7486 314.985 27.0327C314.98 26.4276 315.144 25.9034 315.477 25.4602C315.813 25.0128 316.28 24.6676 316.877 24.4247C317.478 24.1776 318.17 24.054 318.954 24.054C320.105 24.054 321.01 24.299 321.671 24.7891C322.336 25.2791 322.747 25.9418 322.904 26.777ZM329.46 34.1918C328.476 34.1918 327.625 33.9872 326.91 33.5781C326.198 33.1648 325.65 32.581 325.267 31.8267C324.883 31.0682 324.691 30.1754 324.691 29.1484C324.691 28.1385 324.883 27.2521 325.267 26.4893C325.655 25.7223 326.196 25.1257 326.89 24.6996C327.585 24.2692 328.401 24.054 329.339 24.054C329.944 24.054 330.515 24.152 331.052 24.348C331.593 24.5398 332.07 24.8381 332.483 25.2429C332.901 25.6477 333.229 26.1634 333.468 26.7898C333.706 27.4119 333.826 28.1534 333.826 29.0142V29.7237H325.778V28.1641H331.608C331.603 27.7209 331.508 27.3267 331.32 26.9815C331.133 26.6321 330.87 26.3572 330.534 26.157C330.201 25.9567 329.814 25.8565 329.37 25.8565C328.897 25.8565 328.482 25.9716 328.124 26.2017C327.766 26.4276 327.487 26.7259 327.287 27.0966C327.091 27.4631 326.99 27.8658 326.986 28.3047V29.6662C326.986 30.2372 327.091 30.7273 327.299 31.1364C327.508 31.5412 327.8 31.8523 328.175 32.0696C328.55 32.2827 328.989 32.3892 329.492 32.3892C329.829 32.3892 330.133 32.3423 330.406 32.2486C330.679 32.1506 330.915 32.0078 331.115 31.8203C331.316 31.6328 331.467 31.4006 331.569 31.1236L333.73 31.3665C333.593 31.9375 333.334 32.4361 332.95 32.8622C332.571 33.2841 332.085 33.6122 331.493 33.8466C330.9 34.0767 330.223 34.1918 329.46 34.1918Z" fill="#854D0E"/>
<path d="M55.5227 61L52.3409 49.3636H53.7727L56.2045 58.8409H56.3182L58.7955 49.3636H60.3864L62.8636 58.8409H62.9773L65.4091 49.3636H66.8409L63.6591 61H62.2045L59.6364 51.7273H59.5455L56.9773 61H55.5227ZM71.3414 61.1818C70.5005 61.1818 69.7751 60.9962 69.1652 60.625C68.5592 60.25 68.0914 59.7273 67.7618 59.0568C67.4361 58.3826 67.2732 57.5985 67.2732 56.7045C67.2732 55.8106 67.4361 55.0227 67.7618 54.3409C68.0914 53.6553 68.5497 53.1212 69.1368 52.7386C69.7277 52.3523 70.4171 52.1591 71.205 52.1591C71.6595 52.1591 72.1084 52.2348 72.5516 52.3864C72.9948 52.5379 73.3982 52.7841 73.7618 53.125C74.1255 53.4621 74.4152 53.9091 74.6311 54.4659C74.847 55.0227 74.955 55.7083 74.955 56.5227V57.0909H68.2277V55.9318H73.5914C73.5914 55.4394 73.4929 55 73.2959 54.6136C73.1027 54.2273 72.8262 53.9223 72.4664 53.6989C72.1103 53.4754 71.6898 53.3636 71.205 53.3636C70.6709 53.3636 70.2088 53.4962 69.8186 53.7614C69.4323 54.0227 69.1349 54.3636 68.9266 54.7841C68.7183 55.2045 68.6141 55.6553 68.6141 56.1364V56.9091C68.6141 57.5682 68.7277 58.1269 68.955 58.5852C69.1861 59.0398 69.5061 59.3864 69.9152 59.625C70.3243 59.8598 70.7997 59.9773 71.3414 59.9773C71.6936 59.9773 72.0118 59.928 72.2959 59.8295C72.5838 59.7273 72.8319 59.5758 73.0402 59.375C73.2486 59.1705 73.4095 58.9167 73.5232 58.6136L74.8186 58.9773C74.6823 59.4167 74.4531 59.803 74.1311 60.1364C73.8092 60.4659 73.4114 60.7235 72.938 60.9091C72.4645 61.0909 71.9323 61.1818 71.3414 61.1818ZM84.223 61.2045C83.6699 61.2045 83.168 61.1004 82.7173 60.892C82.2665 60.6799 81.9086 60.375 81.6434 59.9773C81.3783 59.5758 81.2457 59.0909 81.2457 58.5227C81.2457 58.0227 81.3442 57.6174 81.5411 57.3068C81.7381 56.9924 82.0014 56.7462 82.3309 56.5682C82.6605 56.3902 83.0241 56.2576 83.4218 56.1705C83.8233 56.0795 84.2267 56.0076 84.632 55.9545C85.1623 55.8864 85.5923 55.8352 85.9218 55.8011C86.2552 55.7633 86.4976 55.7008 86.6491 55.6136C86.8044 55.5265 86.882 55.375 86.882 55.1591V55.1136C86.882 54.553 86.7286 54.1174 86.4218 53.8068C86.1188 53.4962 85.6586 53.3409 85.0411 53.3409C84.401 53.3409 83.8991 53.4811 83.5355 53.7614C83.1718 54.0417 82.9161 54.3409 82.7684 54.6591L81.4957 54.2045C81.723 53.6742 82.026 53.2614 82.4048 52.9659C82.7873 52.6667 83.204 52.4583 83.6548 52.3409C84.1093 52.2197 84.5563 52.1591 84.9957 52.1591C85.276 52.1591 85.598 52.1932 85.9616 52.2614C86.329 52.3258 86.6832 52.4602 87.0241 52.6648C87.3688 52.8693 87.6548 53.178 87.882 53.5909C88.1093 54.0038 88.223 54.5568 88.223 55.25V61H86.882V59.8182H86.8139C86.723 60.0076 86.5714 60.2102 86.3593 60.4261C86.1472 60.642 85.865 60.8258 85.5127 60.9773C85.1605 61.1288 84.7305 61.2045 84.223 61.2045ZM84.4275 60C84.9578 60 85.4048 59.8958 85.7684 59.6875C86.1358 59.4792 86.4123 59.2102 86.598 58.8807C86.7873 58.5511 86.882 58.2045 86.882 57.8409V56.6136C86.8252 56.6818 86.7002 56.7443 86.507 56.8011C86.3177 56.8542 86.098 56.9015 85.848 56.9432C85.6017 56.9811 85.3612 57.0152 85.1264 57.0455C84.8953 57.072 84.7078 57.0947 84.5639 57.1136C84.2154 57.1591 83.8896 57.233 83.5866 57.3352C83.2873 57.4337 83.0449 57.5833 82.8593 57.7841C82.6775 57.9811 82.5866 58.25 82.5866 58.5909C82.5866 59.0568 82.7589 59.4091 83.1036 59.6477C83.4521 59.8826 83.8934 60 84.4275 60ZM90.7504 61V52.2727H92.0459V53.5909H92.1368C92.2959 53.1591 92.5837 52.8087 93.0004 52.5398C93.4171 52.2708 93.8868 52.1364 94.4095 52.1364C94.508 52.1364 94.6311 52.1383 94.7788 52.142C94.9265 52.1458 95.0383 52.1515 95.114 52.1591V53.5227C95.0686 53.5114 94.9644 53.4943 94.8015 53.4716C94.6424 53.4451 94.4739 53.4318 94.2959 53.4318C93.8716 53.4318 93.4928 53.5208 93.1595 53.6989C92.8299 53.8731 92.5686 54.1155 92.3754 54.4261C92.186 54.733 92.0913 55.0833 92.0913 55.4773V61H90.7504ZM100.177 61.1818C99.3361 61.1818 98.6107 60.9962 98.0009 60.625C97.3948 60.25 96.927 59.7273 96.5974 59.0568C96.2717 58.3826 96.1088 57.5985 96.1088 56.7045C96.1088 55.8106 96.2717 55.0227 96.5974 54.3409C96.927 53.6553 97.3853 53.1212 97.9724 52.7386C98.5634 52.3523 99.2527 52.1591 100.041 52.1591C100.495 52.1591 100.944 52.2348 101.387 52.3864C101.83 52.5379 102.234 52.7841 102.597 53.125C102.961 53.4621 103.251 53.9091 103.467 54.4659C103.683 55.0227 103.791 55.7083 103.791 56.5227V57.0909H97.0634V55.9318H102.427C102.427 55.4394 102.329 55 102.132 54.6136C101.938 54.2273 101.662 53.9223 101.302 53.6989C100.946 53.4754 100.525 53.3636 100.041 53.3636C99.5065 53.3636 99.0444 53.4962 98.6543 53.7614C98.2679 54.0227 97.9706 54.3636 97.7622 54.7841C97.5539 55.2045 97.4497 55.6553 97.4497 56.1364V56.9091C97.4497 57.5682 97.5634 58.1269 97.7906 58.5852C98.0217 59.0398 98.3418 59.3864 98.7509 59.625C99.1599 59.8598 99.6353 59.9773 100.177 59.9773C100.529 59.9773 100.847 59.928 101.132 59.8295C101.419 59.7273 101.668 59.5758 101.876 59.375C102.084 59.1705 102.245 58.9167 102.359 58.6136L103.654 58.9773C103.518 59.4167 103.289 59.803 102.967 60.1364C102.645 60.4659 102.247 60.7235 101.774 60.9091C101.3 61.0909 100.768 61.1818 100.177 61.1818ZM115.99 57.4318V52.2727H117.331V61H115.99V59.5227H115.899C115.695 59.9659 115.377 60.3428 114.945 60.6534C114.513 60.9602 113.968 61.1136 113.309 61.1136C112.763 61.1136 112.278 60.9943 111.854 60.7557C111.43 60.5133 111.096 60.1496 110.854 59.6648C110.612 59.1761 110.49 58.5606 110.49 57.8182V52.2727H111.831V57.7273C111.831 58.3636 112.009 58.8712 112.365 59.25C112.725 59.6288 113.184 59.8182 113.74 59.8182C114.074 59.8182 114.413 59.733 114.757 59.5625C115.106 59.392 115.398 59.1307 115.632 58.7784C115.871 58.4261 115.99 57.9773 115.99 57.4318ZM121.208 55.75V61H119.867V52.2727H121.163V53.6364H121.276C121.481 53.1932 121.792 52.8371 122.208 52.5682C122.625 52.2955 123.163 52.1591 123.822 52.1591C124.413 52.1591 124.93 52.2803 125.373 52.5227C125.816 52.7614 126.161 53.125 126.407 53.6136C126.653 54.0985 126.776 54.7121 126.776 55.4545V61H125.435V55.5455C125.435 54.8598 125.257 54.3258 124.901 53.9432C124.545 53.5568 124.057 53.3636 123.435 53.3636C123.007 53.3636 122.625 53.4564 122.288 53.642C121.954 53.8277 121.691 54.0985 121.498 54.4545C121.305 54.8106 121.208 55.2424 121.208 55.75ZM131.875 61.2045C131.322 61.2045 130.82 61.1004 130.369 60.892C129.918 60.6799 129.56 60.375 129.295 59.9773C129.03 59.5758 128.898 59.0909 128.898 58.5227C128.898 58.0227 128.996 57.6174 129.193 57.3068C129.39 56.9924 129.653 56.7462 129.983 56.5682C130.312 56.3902 130.676 56.2576 131.074 56.1705C131.475 56.0795 131.879 56.0076 132.284 55.9545C132.814 55.8864 133.244 55.8352 133.574 55.8011C133.907 55.7633 134.149 55.7008 134.301 55.6136C134.456 55.5265 134.534 55.375 134.534 55.1591V55.1136C134.534 54.553 134.381 54.1174 134.074 53.8068C133.771 53.4962 133.31 53.3409 132.693 53.3409C132.053 53.3409 131.551 53.4811 131.187 53.7614C130.824 54.0417 130.568 54.3409 130.42 54.6591L129.148 54.2045C129.375 53.6742 129.678 53.2614 130.057 52.9659C130.439 52.6667 130.856 52.4583 131.307 52.3409C131.761 52.2197 132.208 52.1591 132.648 52.1591C132.928 52.1591 133.25 52.1932 133.613 52.2614C133.981 52.3258 134.335 52.4602 134.676 52.6648C135.021 52.8693 135.307 53.178 135.534 53.5909C135.761 54.0038 135.875 54.5568 135.875 55.25V61H134.534V59.8182H134.466C134.375 60.0076 134.223 60.2102 134.011 60.4261C133.799 60.642 133.517 60.8258 133.165 60.9773C132.812 61.1288 132.382 61.2045 131.875 61.2045ZM132.079 60C132.61 60 133.057 59.8958 133.42 59.6875C133.788 59.4792 134.064 59.2102 134.25 58.8807C134.439 58.5511 134.534 58.2045 134.534 57.8409V56.6136C134.477 56.6818 134.352 56.7443 134.159 56.8011C133.97 56.8542 133.75 56.9015 133.5 56.9432C133.254 56.9811 133.013 57.0152 132.778 57.0455C132.547 57.072 132.36 57.0947 132.216 57.1136C131.867 57.1591 131.541 57.233 131.238 57.3352C130.939 57.4337 130.697 57.5833 130.511 57.7841C130.329 57.9811 130.238 58.25 130.238 58.5909C130.238 59.0568 130.411 59.4091 130.756 59.6477C131.104 59.8826 131.545 60 132.079 60ZM138.584 61V49.3636H139.925V53.6591H140.039C140.137 53.5076 140.273 53.3144 140.448 53.0795C140.626 52.8409 140.88 52.6288 141.209 52.4432C141.542 52.2538 141.993 52.1591 142.561 52.1591C143.296 52.1591 143.944 52.3428 144.505 52.7102C145.065 53.0777 145.503 53.5985 145.817 54.2727C146.131 54.947 146.289 55.7424 146.289 56.6591C146.289 57.5833 146.131 58.3845 145.817 59.0625C145.503 59.7367 145.067 60.2595 144.51 60.6307C143.953 60.9981 143.311 61.1818 142.584 61.1818C142.023 61.1818 141.575 61.089 141.238 60.9034C140.9 60.714 140.641 60.5 140.459 60.2614C140.277 60.0189 140.137 59.8182 140.039 59.6591H139.88V61H138.584ZM139.902 56.6364C139.902 57.2955 139.999 57.8769 140.192 58.3807C140.385 58.8807 140.667 59.2727 141.039 59.5568C141.41 59.8371 141.864 59.9773 142.402 59.9773C142.963 59.9773 143.431 59.8295 143.806 59.5341C144.184 59.2348 144.469 58.8333 144.658 58.3295C144.851 57.822 144.948 57.2576 144.948 56.6364C144.948 56.0227 144.853 55.4697 144.664 54.9773C144.478 54.4811 144.196 54.089 143.817 53.8011C143.442 53.5095 142.97 53.3636 142.402 53.3636C141.857 53.3636 141.398 53.5019 141.027 53.7784C140.656 54.0511 140.376 54.4337 140.186 54.9261C139.997 55.4148 139.902 55.9848 139.902 56.6364ZM149.761 49.3636V61H148.42V49.3636H149.761ZM155.956 61.1818C155.115 61.1818 154.389 60.9962 153.78 60.625C153.174 60.25 152.706 59.7273 152.376 59.0568C152.05 58.3826 151.888 57.5985 151.888 56.7045C151.888 55.8106 152.05 55.0227 152.376 54.3409C152.706 53.6553 153.164 53.1212 153.751 52.7386C154.342 52.3523 155.031 52.1591 155.819 52.1591C156.274 52.1591 156.723 52.2348 157.166 52.3864C157.609 52.5379 158.013 52.7841 158.376 53.125C158.74 53.4621 159.03 53.9091 159.246 54.4659C159.461 55.0227 159.569 55.7083 159.569 56.5227V57.0909H152.842V55.9318H158.206C158.206 55.4394 158.107 55 157.91 54.6136C157.717 54.2273 157.441 53.9223 157.081 53.6989C156.725 53.4754 156.304 53.3636 155.819 53.3636C155.285 53.3636 154.823 53.4962 154.433 53.7614C154.047 54.0227 153.749 54.3636 153.541 54.7841C153.333 55.2045 153.228 55.6553 153.228 56.1364V56.9091C153.228 57.5682 153.342 58.1269 153.569 58.5852C153.8 59.0398 154.121 59.3864 154.53 59.625C154.939 59.8598 155.414 59.9773 155.956 59.9773C156.308 59.9773 156.626 59.928 156.91 59.8295C157.198 59.7273 157.446 59.5758 157.655 59.375C157.863 59.1705 158.024 58.9167 158.138 58.6136L159.433 58.9773C159.297 59.4167 159.067 59.803 158.746 60.1364C158.424 60.4659 158.026 60.7235 157.552 60.9091C157.079 61.0909 156.547 61.1818 155.956 61.1818ZM170.065 52.2727V53.4091H165.542V52.2727H170.065ZM166.86 50.1818H168.201V58.5C168.201 58.8788 168.256 59.1629 168.366 59.3523C168.479 59.5379 168.623 59.6629 168.798 59.7273C168.976 59.7879 169.163 59.8182 169.36 59.8182C169.508 59.8182 169.629 59.8106 169.724 59.7955C169.818 59.7765 169.894 59.7614 169.951 59.75L170.224 60.9545C170.133 60.9886 170.006 61.0227 169.843 61.0568C169.68 61.0947 169.474 61.1136 169.224 61.1136C168.845 61.1136 168.474 61.0322 168.11 60.8693C167.75 60.7064 167.451 60.4583 167.212 60.125C166.977 59.7917 166.86 59.3712 166.86 58.8636V50.1818ZM175.613 61.1818C174.825 61.1818 174.134 60.9943 173.539 60.6193C172.949 60.2443 172.486 59.7197 172.153 59.0455C171.824 58.3712 171.659 57.5833 171.659 56.6818C171.659 55.7727 171.824 54.9792 172.153 54.3011C172.486 53.6231 172.949 53.0966 173.539 52.7216C174.134 52.3466 174.825 52.1591 175.613 52.1591C176.401 52.1591 177.091 52.3466 177.682 52.7216C178.276 53.0966 178.738 53.6231 179.068 54.3011C179.401 54.9792 179.568 55.7727 179.568 56.6818C179.568 57.5833 179.401 58.3712 179.068 59.0455C178.738 59.7197 178.276 60.2443 177.682 60.6193C177.091 60.9943 176.401 61.1818 175.613 61.1818ZM175.613 59.9773C176.212 59.9773 176.704 59.8239 177.091 59.517C177.477 59.2102 177.763 58.8068 177.949 58.3068C178.134 57.8068 178.227 57.2652 178.227 56.6818C178.227 56.0985 178.134 55.5549 177.949 55.0511C177.763 54.5473 177.477 54.1402 177.091 53.8295C176.704 53.5189 176.212 53.3636 175.613 53.3636C175.015 53.3636 174.522 53.5189 174.136 53.8295C173.75 54.1402 173.464 54.5473 173.278 55.0511C173.093 55.5549 173 56.0985 173 56.6818C173 57.2652 173.093 57.8068 173.278 58.3068C173.464 58.8068 173.75 59.2102 174.136 59.517C174.522 59.8239 175.015 59.9773 175.613 59.9773ZM192.457 54.2273L191.252 54.5682C191.176 54.3674 191.065 54.1723 190.917 53.983C190.773 53.7898 190.576 53.6307 190.326 53.5057C190.076 53.3807 189.756 53.3182 189.366 53.3182C188.832 53.3182 188.387 53.4413 188.03 53.6875C187.678 53.9299 187.502 54.2386 187.502 54.6136C187.502 54.947 187.623 55.2102 187.866 55.4034C188.108 55.5966 188.487 55.7576 189.002 55.8864L190.298 56.2045C191.078 56.3939 191.659 56.6837 192.042 57.0739C192.424 57.4602 192.616 57.9583 192.616 58.5682C192.616 59.0682 192.472 59.5152 192.184 59.9091C191.9 60.303 191.502 60.6136 190.991 60.8409C190.479 61.0682 189.885 61.1818 189.207 61.1818C188.316 61.1818 187.58 60.9886 186.996 60.6023C186.413 60.2159 186.044 59.6515 185.888 58.9091L187.161 58.5909C187.282 59.0606 187.512 59.4129 187.849 59.6477C188.19 59.8826 188.635 60 189.184 60C189.809 60 190.305 59.8674 190.673 59.6023C191.044 59.3333 191.229 59.0114 191.229 58.6364C191.229 58.3333 191.123 58.0795 190.911 57.875C190.699 57.6667 190.373 57.5114 189.934 57.4091L188.479 57.0682C187.68 56.8788 187.093 56.5852 186.718 56.1875C186.347 55.786 186.161 55.2841 186.161 54.6818C186.161 54.1894 186.299 53.7538 186.576 53.375C186.856 52.9962 187.237 52.6989 187.718 52.483C188.203 52.267 188.752 52.1591 189.366 52.1591C190.229 52.1591 190.907 52.3485 191.4 52.7273C191.896 53.1061 192.248 53.6061 192.457 54.2273ZM197.282 61.2045C196.729 61.2045 196.227 61.1004 195.777 60.892C195.326 60.6799 194.968 60.375 194.703 59.9773C194.438 59.5758 194.305 59.0909 194.305 58.5227C194.305 58.0227 194.404 57.6174 194.601 57.3068C194.797 56.9924 195.061 56.7462 195.39 56.5682C195.72 56.3902 196.083 56.2576 196.481 56.1705C196.883 56.0795 197.286 56.0076 197.691 55.9545C198.222 55.8864 198.652 55.8352 198.981 55.8011C199.315 55.7633 199.557 55.7008 199.708 55.6136C199.864 55.5265 199.941 55.375 199.941 55.1591V55.1136C199.941 54.553 199.788 54.1174 199.481 53.8068C199.178 53.4962 198.718 53.3409 198.101 53.3409C197.46 53.3409 196.958 53.4811 196.595 53.7614C196.231 54.0417 195.976 54.3409 195.828 54.6591L194.555 54.2045C194.782 53.6742 195.085 53.2614 195.464 52.9659C195.847 52.6667 196.263 52.4583 196.714 52.3409C197.169 52.2197 197.616 52.1591 198.055 52.1591C198.335 52.1591 198.657 52.1932 199.021 52.2614C199.388 52.3258 199.743 52.4602 200.083 52.6648C200.428 52.8693 200.714 53.178 200.941 53.5909C201.169 54.0038 201.282 54.5568 201.282 55.25V61H199.941V59.8182H199.873C199.782 60.0076 199.631 60.2102 199.419 60.4261C199.207 60.642 198.924 60.8258 198.572 60.9773C198.22 61.1288 197.79 61.2045 197.282 61.2045ZM197.487 60C198.017 60 198.464 59.8958 198.828 59.6875C199.195 59.4792 199.472 59.2102 199.657 58.8807C199.847 58.5511 199.941 58.2045 199.941 57.8409V56.6136C199.885 56.6818 199.76 56.7443 199.566 56.8011C199.377 56.8542 199.157 56.9015 198.907 56.9432C198.661 56.9811 198.421 57.0152 198.186 57.0455C197.955 57.072 197.767 57.0947 197.623 57.1136C197.275 57.1591 196.949 57.233 196.646 57.3352C196.347 57.4337 196.104 57.5833 195.919 57.7841C195.737 57.9811 195.646 58.25 195.646 58.5909C195.646 59.0568 195.818 59.4091 196.163 59.6477C196.511 59.8826 196.953 60 197.487 60ZM210.634 52.2727L207.406 61H206.043L202.815 52.2727H204.27L206.679 59.2273H206.77L209.179 52.2727H210.634ZM215.83 61.1818C214.989 61.1818 214.264 60.9962 213.654 60.625C213.048 60.25 212.58 59.7273 212.251 59.0568C211.925 58.3826 211.762 57.5985 211.762 56.7045C211.762 55.8106 211.925 55.0227 212.251 54.3409C212.58 53.6553 213.038 53.1212 213.626 52.7386C214.216 52.3523 214.906 52.1591 215.694 52.1591C216.148 52.1591 216.597 52.2348 217.04 52.3864C217.484 52.5379 217.887 52.7841 218.251 53.125C218.614 53.4621 218.904 53.9091 219.12 54.4659C219.336 55.0227 219.444 55.7083 219.444 56.5227V57.0909H212.716V55.9318H218.08C218.08 55.4394 217.982 55 217.785 54.6136C217.591 54.2273 217.315 53.9223 216.955 53.6989C216.599 53.4754 216.179 53.3636 215.694 53.3636C215.16 53.3636 214.698 53.4962 214.307 53.7614C213.921 54.0227 213.624 54.3636 213.415 54.7841C213.207 55.2045 213.103 55.6553 213.103 56.1364V56.9091C213.103 57.5682 213.216 58.1269 213.444 58.5852C213.675 59.0398 213.995 59.3864 214.404 59.625C214.813 59.8598 215.288 59.9773 215.83 59.9773C216.182 59.9773 216.501 59.928 216.785 59.8295C217.073 59.7273 217.321 59.5758 217.529 59.375C217.737 59.1705 217.898 58.9167 218.012 58.6136L219.307 58.9773C219.171 59.4167 218.942 59.803 218.62 60.1364C218.298 60.4659 217.9 60.7235 217.427 60.9091C216.953 61.0909 216.421 61.1818 215.83 61.1818ZM228.712 61.2045C228.159 61.2045 227.657 61.1004 227.206 60.892C226.755 60.6799 226.397 60.375 226.132 59.9773C225.867 59.5758 225.734 59.0909 225.734 58.5227C225.734 58.0227 225.833 57.6174 226.03 57.3068C226.227 56.9924 226.49 56.7462 226.82 56.5682C227.149 56.3902 227.513 56.2576 227.911 56.1705C228.312 56.0795 228.715 56.0076 229.121 55.9545C229.651 55.8864 230.081 55.8352 230.411 55.8011C230.744 55.7633 230.986 55.7008 231.138 55.6136C231.293 55.5265 231.371 55.375 231.371 55.1591V55.1136C231.371 54.553 231.217 54.1174 230.911 53.8068C230.608 53.4962 230.147 53.3409 229.53 53.3409C228.89 53.3409 228.388 53.4811 228.024 53.7614C227.661 54.0417 227.405 54.3409 227.257 54.6591L225.984 54.2045C226.212 53.6742 226.515 53.2614 226.894 52.9659C227.276 52.6667 227.693 52.4583 228.144 52.3409C228.598 52.2197 229.045 52.1591 229.484 52.1591C229.765 52.1591 230.087 52.1932 230.45 52.2614C230.818 52.3258 231.172 52.4602 231.513 52.6648C231.858 52.8693 232.144 53.178 232.371 53.5909C232.598 54.0038 232.712 54.5568 232.712 55.25V61H231.371V59.8182H231.303C231.212 60.0076 231.06 60.2102 230.848 60.4261C230.636 60.642 230.354 60.8258 230.001 60.9773C229.649 61.1288 229.219 61.2045 228.712 61.2045ZM228.916 60C229.447 60 229.894 59.8958 230.257 59.6875C230.625 59.4792 230.901 59.2102 231.087 58.8807C231.276 58.5511 231.371 58.2045 231.371 57.8409V56.6136C231.314 56.6818 231.189 56.7443 230.996 56.8011C230.806 56.8542 230.587 56.9015 230.337 56.9432C230.09 56.9811 229.85 57.0152 229.615 57.0455C229.384 57.072 229.197 57.0947 229.053 57.1136C228.704 57.1591 228.378 57.233 228.075 57.3352C227.776 57.4337 227.534 57.5833 227.348 57.7841C227.166 57.9811 227.075 58.25 227.075 58.5909C227.075 59.0568 227.248 59.4091 227.592 59.6477C227.941 59.8826 228.382 60 228.916 60ZM236.58 55.75V61H235.239V52.2727H236.535V53.6364H236.648C236.853 53.1932 237.163 52.8371 237.58 52.5682C237.997 52.2955 238.535 52.1591 239.194 52.1591C239.785 52.1591 240.302 52.2803 240.745 52.5227C241.188 52.7614 241.533 53.125 241.779 53.6136C242.025 54.0985 242.148 54.7121 242.148 55.4545V61H240.807V55.5455C240.807 54.8598 240.629 54.3258 240.273 53.9432C239.917 53.5568 239.429 53.3636 238.807 53.3636C238.379 53.3636 237.997 53.4564 237.66 53.642C237.326 53.8277 237.063 54.0985 236.87 54.4545C236.677 54.8106 236.58 55.2424 236.58 55.75ZM245.23 64.2727C245.002 64.2727 244.8 64.2538 244.622 64.2159C244.444 64.1818 244.321 64.1477 244.252 64.1136L244.593 62.9318C244.919 63.0152 245.207 63.0455 245.457 63.0227C245.707 63 245.929 62.8883 246.122 62.6875C246.319 62.4905 246.499 62.1705 246.661 61.7273L246.911 61.0455L243.684 52.2727H245.139L247.548 59.2273H247.639L250.048 52.2727H251.502L247.798 62.2727C247.631 62.7235 247.425 63.0966 247.179 63.392C246.932 63.6913 246.646 63.9129 246.321 64.0568C245.999 64.2008 245.635 64.2727 245.23 64.2727ZM257.932 64.2727V52.2727H259.228V53.6591H259.387C259.485 53.5076 259.622 53.3144 259.796 53.0795C259.974 52.8409 260.228 52.6288 260.557 52.4432C260.891 52.2538 261.341 52.1591 261.91 52.1591C262.644 52.1591 263.292 52.3428 263.853 52.7102C264.413 53.0777 264.851 53.5985 265.165 54.2727C265.48 54.947 265.637 55.7424 265.637 56.6591C265.637 57.5833 265.48 58.3845 265.165 59.0625C264.851 59.7367 264.415 60.2595 263.858 60.6307C263.302 60.9981 262.66 61.1818 261.932 61.1818C261.372 61.1818 260.923 61.089 260.586 60.9034C260.249 60.714 259.989 60.5 259.807 60.2614C259.625 60.0189 259.485 59.8182 259.387 59.6591H259.273V64.2727H257.932ZM259.25 56.6364C259.25 57.2955 259.347 57.8769 259.54 58.3807C259.733 58.8807 260.016 59.2727 260.387 59.5568C260.758 59.8371 261.213 59.9773 261.75 59.9773C262.311 59.9773 262.779 59.8295 263.154 59.5341C263.533 59.2348 263.817 58.8333 264.006 58.3295C264.199 57.822 264.296 57.2576 264.296 56.6364C264.296 56.0227 264.201 55.4697 264.012 54.9773C263.826 54.4811 263.544 54.089 263.165 53.8011C262.79 53.5095 262.319 53.3636 261.75 53.3636C261.205 53.3636 260.747 53.5019 260.375 53.7784C260.004 54.0511 259.724 54.4337 259.535 54.9261C259.345 55.4148 259.25 55.9848 259.25 56.6364ZM267.762 61V52.2727H269.058V53.5909H269.149C269.308 53.1591 269.596 52.8087 270.012 52.5398C270.429 52.2708 270.899 52.1364 271.421 52.1364C271.52 52.1364 271.643 52.1383 271.791 52.142C271.938 52.1458 272.05 52.1515 272.126 52.1591V53.5227C272.08 53.5114 271.976 53.4943 271.813 53.4716C271.654 53.4451 271.486 53.4318 271.308 53.4318C270.883 53.4318 270.505 53.5208 270.171 53.6989C269.842 53.8731 269.58 54.1155 269.387 54.4261C269.198 54.733 269.103 55.0833 269.103 55.4773V61H267.762ZM277.075 61.1818C276.287 61.1818 275.596 60.9943 275.001 60.6193C274.41 60.2443 273.948 59.7197 273.615 59.0455C273.285 58.3712 273.121 57.5833 273.121 56.6818C273.121 55.7727 273.285 54.9792 273.615 54.3011C273.948 53.6231 274.41 53.0966 275.001 52.7216C275.596 52.3466 276.287 52.1591 277.075 52.1591C277.863 52.1591 278.553 52.3466 279.143 52.7216C279.738 53.0966 280.2 53.6231 280.53 54.3011C280.863 54.9792 281.03 55.7727 281.03 56.6818C281.03 57.5833 280.863 58.3712 280.53 59.0455C280.2 59.7197 279.738 60.2443 279.143 60.6193C278.553 60.9943 277.863 61.1818 277.075 61.1818ZM277.075 59.9773C277.674 59.9773 278.166 59.8239 278.553 59.517C278.939 59.2102 279.225 58.8068 279.41 58.3068C279.596 57.8068 279.689 57.2652 279.689 56.6818C279.689 56.0985 279.596 55.5549 279.41 55.0511C279.225 54.5473 278.939 54.1402 278.553 53.8295C278.166 53.5189 277.674 53.3636 277.075 53.3636C276.477 53.3636 275.984 53.5189 275.598 53.8295C275.212 54.1402 274.926 54.5473 274.74 55.0511C274.554 55.5549 274.462 56.0985 274.462 56.6818C274.462 57.2652 274.554 57.8068 274.74 58.3068C274.926 58.8068 275.212 59.2102 275.598 59.517C275.984 59.8239 276.477 59.9773 277.075 59.9773ZM286.679 64.4545C286.032 64.4545 285.475 64.3712 285.009 64.2045C284.543 64.0417 284.155 63.8258 283.844 63.5568C283.537 63.2917 283.293 63.0076 283.111 62.7045L284.179 61.9545C284.301 62.1136 284.454 62.2955 284.64 62.5C284.825 62.7083 285.079 62.8883 285.401 63.0398C285.727 63.1951 286.153 63.2727 286.679 63.2727C287.384 63.2727 287.965 63.1023 288.424 62.7614C288.882 62.4205 289.111 61.8864 289.111 61.1591V59.3864H288.998C288.899 59.5455 288.759 59.7424 288.577 59.9773C288.399 60.2083 288.142 60.4148 287.804 60.5966C287.471 60.7746 287.02 60.8636 286.452 60.8636C285.748 60.8636 285.115 60.697 284.554 60.3636C283.998 60.0303 283.556 59.5455 283.231 58.9091C282.909 58.2727 282.748 57.5 282.748 56.5909C282.748 55.697 282.905 54.9186 283.219 54.2557C283.534 53.589 283.971 53.0739 284.532 52.7102C285.092 52.3428 285.74 52.1591 286.475 52.1591C287.043 52.1591 287.494 52.2538 287.827 52.4432C288.164 52.6288 288.422 52.8409 288.6 53.0795C288.782 53.3144 288.922 53.5076 289.02 53.6591H289.157V52.2727H290.452V61.25C290.452 62 290.282 62.6098 289.941 63.0795C289.604 63.553 289.149 63.8996 288.577 64.1193C288.009 64.3428 287.376 64.4545 286.679 64.4545ZM286.634 59.6591C287.172 59.6591 287.626 59.536 287.998 59.2898C288.369 59.0436 288.651 58.6894 288.844 58.2273C289.037 57.7652 289.134 57.2121 289.134 56.5682C289.134 55.9394 289.039 55.3845 288.85 54.9034C288.66 54.4223 288.38 54.0455 288.009 53.7727C287.638 53.5 287.179 53.3636 286.634 53.3636C286.066 53.3636 285.592 53.5076 285.213 53.7955C284.838 54.0833 284.556 54.4697 284.367 54.9545C284.181 55.4394 284.088 55.9773 284.088 56.5682C284.088 57.1742 284.183 57.7102 284.373 58.1761C284.566 58.6383 284.85 59.0019 285.225 59.267C285.604 59.5284 286.073 59.6591 286.634 59.6591ZM292.987 61V52.2727H294.282V53.5909H294.373C294.532 53.1591 294.82 52.8087 295.237 52.5398C295.653 52.2708 296.123 52.1364 296.646 52.1364C296.744 52.1364 296.867 52.1383 297.015 52.142C297.163 52.1458 297.275 52.1515 297.35 52.1591V53.5227C297.305 53.5114 297.201 53.4943 297.038 53.4716C296.879 53.4451 296.71 53.4318 296.532 53.4318C296.108 53.4318 295.729 53.5208 295.396 53.6989C295.066 53.8731 294.805 54.1155 294.612 54.4261C294.422 54.733 294.328 55.0833 294.328 55.4773V61H292.987ZM302.413 61.1818C301.572 61.1818 300.847 60.9962 300.237 60.625C299.631 60.25 299.163 59.7273 298.834 59.0568C298.508 58.3826 298.345 57.5985 298.345 56.7045C298.345 55.8106 298.508 55.0227 298.834 54.3409C299.163 53.6553 299.622 53.1212 300.209 52.7386C300.8 52.3523 301.489 52.1591 302.277 52.1591C302.731 52.1591 303.18 52.2348 303.623 52.3864C304.067 52.5379 304.47 52.7841 304.834 53.125C305.197 53.4621 305.487 53.9091 305.703 54.4659C305.919 55.0227 306.027 55.7083 306.027 56.5227V57.0909H299.3V55.9318H304.663C304.663 55.4394 304.565 55 304.368 54.6136C304.175 54.2273 303.898 53.9223 303.538 53.6989C303.182 53.4754 302.762 53.3636 302.277 53.3636C301.743 53.3636 301.281 53.4962 300.891 53.7614C300.504 54.0227 300.207 54.3636 299.998 54.7841C299.79 55.2045 299.686 55.6553 299.686 56.1364V56.9091C299.686 57.5682 299.8 58.1269 300.027 58.5852C300.258 59.0398 300.578 59.3864 300.987 59.625C301.396 59.8598 301.872 59.9773 302.413 59.9773C302.766 59.9773 303.084 59.928 303.368 59.8295C303.656 59.7273 303.904 59.5758 304.112 59.375C304.32 59.1705 304.481 58.9167 304.595 58.6136L305.891 58.9773C305.754 59.4167 305.525 59.803 305.203 60.1364C304.881 60.4659 304.483 60.7235 304.01 60.9091C303.536 61.0909 303.004 61.1818 302.413 61.1818ZM314.328 54.2273L313.124 54.5682C313.048 54.3674 312.936 54.1723 312.789 53.983C312.645 53.7898 312.448 53.6307 312.198 53.5057C311.948 53.3807 311.628 53.3182 311.238 53.3182C310.703 53.3182 310.258 53.4413 309.902 53.6875C309.55 53.9299 309.374 54.2386 309.374 54.6136C309.374 54.947 309.495 55.2102 309.738 55.4034C309.98 55.5966 310.359 55.7576 310.874 55.8864L312.169 56.2045C312.95 56.3939 313.531 56.6837 313.914 57.0739C314.296 57.4602 314.488 57.9583 314.488 58.5682C314.488 59.0682 314.344 59.5152 314.056 59.9091C313.772 60.303 313.374 60.6136 312.863 60.8409C312.351 61.0682 311.756 61.1818 311.078 61.1818C310.188 61.1818 309.452 60.9886 308.868 60.6023C308.285 60.2159 307.916 59.6515 307.76 58.9091L309.033 58.5909C309.154 59.0606 309.383 59.4129 309.721 59.6477C310.061 59.8826 310.506 60 311.056 60C311.681 60 312.177 59.8674 312.544 59.6023C312.916 59.3333 313.101 59.0114 313.101 58.6364C313.101 58.3333 312.995 58.0795 312.783 57.875C312.571 57.6667 312.245 57.5114 311.806 57.4091L310.351 57.0682C309.552 56.8788 308.965 56.5852 308.59 56.1875C308.219 55.786 308.033 55.2841 308.033 54.6818C308.033 54.1894 308.171 53.7538 308.448 53.375C308.728 52.9962 309.109 52.6989 309.59 52.483C310.075 52.267 310.624 52.1591 311.238 52.1591C312.101 52.1591 312.779 52.3485 313.272 52.7273C313.768 53.1061 314.12 53.6061 314.328 54.2273ZM322.768 54.2273L321.563 54.5682C321.488 54.3674 321.376 54.1723 321.228 53.983C321.084 53.7898 320.887 53.6307 320.637 53.5057C320.387 53.3807 320.067 53.3182 319.677 53.3182C319.143 53.3182 318.698 53.4413 318.342 53.6875C317.989 53.9299 317.813 54.2386 317.813 54.6136C317.813 54.947 317.935 55.2102 318.177 55.4034C318.419 55.5966 318.798 55.7576 319.313 55.8864L320.609 56.2045C321.389 56.3939 321.971 56.6837 322.353 57.0739C322.736 57.4602 322.927 57.9583 322.927 58.5682C322.927 59.0682 322.783 59.5152 322.495 59.9091C322.211 60.303 321.813 60.6136 321.302 60.8409C320.791 61.0682 320.196 61.1818 319.518 61.1818C318.628 61.1818 317.891 60.9886 317.308 60.6023C316.724 60.2159 316.355 59.6515 316.2 58.9091L317.472 58.5909C317.594 59.0606 317.823 59.4129 318.16 59.6477C318.501 59.8826 318.946 60 319.495 60C320.12 60 320.616 59.8674 320.984 59.6023C321.355 59.3333 321.541 59.0114 321.541 58.6364C321.541 58.3333 321.435 58.0795 321.222 57.875C321.01 57.6667 320.685 57.5114 320.245 57.4091L318.791 57.0682C317.991 56.8788 317.404 56.5852 317.029 56.1875C316.658 55.786 316.472 55.2841 316.472 54.6818C316.472 54.1894 316.611 53.7538 316.887 53.375C317.167 52.9962 317.548 52.6989 318.029 52.483C318.514 52.267 319.063 52.1591 319.677 52.1591C320.541 52.1591 321.219 52.3485 321.711 52.7273C322.207 53.1061 322.56 53.6061 322.768 54.2273ZM332.174 61.2045C331.621 61.2045 331.119 61.1004 330.668 60.892C330.217 60.6799 329.859 60.375 329.594 59.9773C329.329 59.5758 329.196 59.0909 329.196 58.5227C329.196 58.0227 329.295 57.6174 329.492 57.3068C329.689 56.9924 329.952 56.7462 330.282 56.5682C330.611 56.3902 330.975 56.2576 331.372 56.1705C331.774 56.0795 332.177 56.0076 332.583 55.9545C333.113 55.8864 333.543 55.8352 333.872 55.8011C334.206 55.7633 334.448 55.7008 334.6 55.6136C334.755 55.5265 334.833 55.375 334.833 55.1591V55.1136C334.833 54.553 334.679 54.1174 334.372 53.8068C334.069 53.4962 333.609 53.3409 332.992 53.3409C332.352 53.3409 331.85 53.4811 331.486 53.7614C331.122 54.0417 330.867 54.3409 330.719 54.6591L329.446 54.2045C329.674 53.6742 329.977 53.2614 330.355 52.9659C330.738 52.6667 331.155 52.4583 331.605 52.3409C332.06 52.2197 332.507 52.1591 332.946 52.1591C333.227 52.1591 333.549 52.1932 333.912 52.2614C334.28 52.3258 334.634 52.4602 334.975 52.6648C335.319 52.8693 335.605 53.178 335.833 53.5909C336.06 54.0038 336.174 54.5568 336.174 55.25V61H334.833V59.8182H334.764C334.674 60.0076 334.522 60.2102 334.31 60.4261C334.098 60.642 333.816 60.8258 333.463 60.9773C333.111 61.1288 332.681 61.2045 332.174 61.2045ZM332.378 60C332.908 60 333.355 59.8958 333.719 59.6875C334.086 59.4792 334.363 59.2102 334.549 58.8807C334.738 58.5511 334.833 58.2045 334.833 57.8409V56.6136C334.776 56.6818 334.651 56.7443 334.458 56.8011C334.268 56.8542 334.049 56.9015 333.799 56.9432C333.552 56.9811 333.312 57.0152 333.077 57.0455C332.846 57.072 332.658 57.0947 332.514 57.1136C332.166 57.1591 331.84 57.233 331.537 57.3352C331.238 57.4337 330.996 57.5833 330.81 57.7841C330.628 57.9811 330.537 58.25 330.537 58.5909C330.537 59.0568 330.71 59.4091 331.054 59.6477C331.403 59.8826 331.844 60 332.378 60ZM342.496 52.2727V53.4091H337.974V52.2727H342.496ZM339.292 50.1818H340.633V58.5C340.633 58.8788 340.688 59.1629 340.798 59.3523C340.911 59.5379 341.055 59.6629 341.229 59.7273C341.407 59.7879 341.595 59.8182 341.792 59.8182C341.94 59.8182 342.061 59.8106 342.156 59.7955C342.25 59.7765 342.326 59.7614 342.383 59.75L342.656 60.9545C342.565 60.9886 342.438 61.0227 342.275 61.0568C342.112 61.0947 341.906 61.1136 341.656 61.1136C341.277 61.1136 340.906 61.0322 340.542 60.8693C340.182 60.7064 339.883 60.4583 339.644 60.125C339.409 59.7917 339.292 59.3712 339.292 58.8636V50.1818ZM352.969 52.2727V53.4091H348.446V52.2727H352.969ZM349.764 50.1818H351.105V58.5C351.105 58.8788 351.16 59.1629 351.27 59.3523C351.384 59.5379 351.528 59.6629 351.702 59.7273C351.88 59.7879 352.067 59.8182 352.264 59.8182C352.412 59.8182 352.533 59.8106 352.628 59.7955C352.723 59.7765 352.799 59.7614 352.855 59.75L353.128 60.9545C353.037 60.9886 352.91 61.0227 352.747 61.0568C352.585 61.0947 352.378 61.1136 352.128 61.1136C351.749 61.1136 351.378 61.0322 351.014 60.8693C350.655 60.7064 350.355 60.4583 350.117 60.125C349.882 59.7917 349.764 59.3712 349.764 58.8636V50.1818ZM356.594 55.75V61H355.254V49.3636H356.594V53.6364H356.708C356.913 53.1856 357.219 52.8277 357.629 52.5625C358.041 52.2936 358.591 52.1591 359.276 52.1591C359.871 52.1591 360.392 52.2784 360.839 52.517C361.286 52.7519 361.632 53.1136 361.879 53.6023C362.129 54.0871 362.254 54.7045 362.254 55.4545V61H360.913V55.5455C360.913 54.8523 360.733 54.3163 360.373 53.9375C360.017 53.5549 359.522 53.3636 358.89 53.3636C358.45 53.3636 358.057 53.4564 357.708 53.642C357.363 53.8277 357.091 54.0985 356.89 54.4545C356.693 54.8106 356.594 55.2424 356.594 55.75ZM364.787 61V52.2727H366.128V61H364.787ZM365.468 50.8182C365.207 50.8182 364.982 50.7292 364.792 50.5511C364.607 50.3731 364.514 50.1591 364.514 49.9091C364.514 49.6591 364.607 49.4451 364.792 49.267C364.982 49.089 365.207 49 365.468 49C365.73 49 365.953 49.089 366.139 49.267C366.328 49.4451 366.423 49.6591 366.423 49.9091C366.423 50.1591 366.328 50.3731 366.139 50.5511C365.953 50.7292 365.73 50.8182 365.468 50.8182ZM374.845 54.2273L373.641 54.5682C373.565 54.3674 373.453 54.1723 373.306 53.983C373.162 53.7898 372.965 53.6307 372.715 53.5057C372.465 53.3807 372.145 53.3182 371.754 53.3182C371.22 53.3182 370.775 53.4413 370.419 53.6875C370.067 53.9299 369.891 54.2386 369.891 54.6136C369.891 54.947 370.012 55.2102 370.254 55.4034C370.497 55.5966 370.876 55.7576 371.391 55.8864L372.686 56.2045C373.467 56.3939 374.048 56.6837 374.431 57.0739C374.813 57.4602 375.004 57.9583 375.004 58.5682C375.004 59.0682 374.86 59.5152 374.573 59.9091C374.289 60.303 373.891 60.6136 373.379 60.8409C372.868 61.0682 372.273 61.1818 371.595 61.1818C370.705 61.1818 369.968 60.9886 369.385 60.6023C368.802 60.2159 368.432 59.6515 368.277 58.9091L369.55 58.5909C369.671 59.0606 369.9 59.4129 370.237 59.6477C370.578 59.8826 371.023 60 371.573 60C372.198 60 372.694 59.8674 373.061 59.6023C373.432 59.3333 373.618 59.0114 373.618 58.6364C373.618 58.3333 373.512 58.0795 373.3 57.875C373.088 57.6667 372.762 57.5114 372.323 57.4091L370.868 57.0682C370.069 56.8788 369.482 56.5852 369.107 56.1875C368.735 55.786 368.55 55.2841 368.55 54.6818C368.55 54.1894 368.688 53.7538 368.965 53.375C369.245 52.9962 369.626 52.6989 370.107 52.483C370.592 52.267 371.141 52.1591 371.754 52.1591C372.618 52.1591 373.296 52.3485 373.789 52.7273C374.285 53.1061 374.637 53.6061 374.845 54.2273ZM385.478 52.2727V53.4091H380.956V52.2727H385.478ZM382.274 50.1818H383.615V58.5C383.615 58.8788 383.67 59.1629 383.779 59.3523C383.893 59.5379 384.037 59.6629 384.211 59.7273C384.389 59.7879 384.577 59.8182 384.774 59.8182C384.922 59.8182 385.043 59.8106 385.137 59.7955C385.232 59.7765 385.308 59.7614 385.365 59.75L385.637 60.9545C385.547 60.9886 385.42 61.0227 385.257 61.0568C385.094 61.0947 384.887 61.1136 384.637 61.1136C384.259 61.1136 383.887 61.0322 383.524 60.8693C383.164 60.7064 382.865 60.4583 382.626 60.125C382.391 59.7917 382.274 59.3712 382.274 58.8636V50.1818ZM387.575 61V52.2727H388.916V61H387.575ZM388.257 50.8182C387.996 50.8182 387.77 50.7292 387.581 50.5511C387.395 50.3731 387.303 50.1591 387.303 49.9091C387.303 49.6591 387.395 49.4451 387.581 49.267C387.77 49.089 387.996 49 388.257 49C388.519 49 388.742 49.089 388.928 49.267C389.117 49.4451 389.212 49.6591 389.212 49.9091C389.212 50.1591 389.117 50.3731 388.928 50.5511C388.742 50.7292 388.519 50.8182 388.257 50.8182ZM391.452 61V52.2727H392.748V53.6364H392.861C393.043 53.1705 393.337 52.8087 393.742 52.5511C394.147 52.2898 394.634 52.1591 395.202 52.1591C395.778 52.1591 396.257 52.2898 396.64 52.5511C397.026 52.8087 397.327 53.1705 397.543 53.6364H397.634C397.858 53.1856 398.193 52.8277 398.64 52.5625C399.087 52.2936 399.623 52.1591 400.248 52.1591C401.028 52.1591 401.666 52.4034 402.163 52.892C402.659 53.3769 402.907 54.1326 402.907 55.1591V61H401.566V55.1591C401.566 54.5152 401.39 54.0549 401.038 53.7784C400.685 53.5019 400.27 53.3636 399.793 53.3636C399.18 53.3636 398.704 53.5492 398.367 53.9205C398.03 54.2879 397.861 54.7538 397.861 55.3182V61H396.498V55.0227C396.498 54.5265 396.337 54.1269 396.015 53.8239C395.693 53.517 395.278 53.3636 394.77 53.3636C394.422 53.3636 394.096 53.4564 393.793 53.642C393.494 53.8277 393.252 54.0852 393.066 54.4148C392.884 54.7405 392.793 55.1174 392.793 55.5455V61H391.452ZM409.098 61.1818C408.257 61.1818 407.531 60.9962 406.921 60.625C406.315 60.25 405.848 59.7273 405.518 59.0568C405.192 58.3826 405.029 57.5985 405.029 56.7045C405.029 55.8106 405.192 55.0227 405.518 54.3409C405.848 53.6553 406.306 53.1212 406.893 52.7386C407.484 52.3523 408.173 52.1591 408.961 52.1591C409.416 52.1591 409.865 52.2348 410.308 52.3864C410.751 52.5379 411.154 52.7841 411.518 53.125C411.882 53.4621 412.171 53.9091 412.387 54.4659C412.603 55.0227 412.711 55.7083 412.711 56.5227V57.0909H405.984V55.9318H411.348C411.348 55.4394 411.249 55 411.052 54.6136C410.859 54.2273 410.582 53.9223 410.223 53.6989C409.867 53.4754 409.446 53.3636 408.961 53.3636C408.427 53.3636 407.965 53.4962 407.575 53.7614C407.189 54.0227 406.891 54.3636 406.683 54.7841C406.475 55.2045 406.37 55.6553 406.37 56.1364V56.9091C406.37 57.5682 406.484 58.1269 406.711 58.5852C406.942 59.0398 407.262 59.3864 407.671 59.625C408.081 59.8598 408.556 59.9773 409.098 59.9773C409.45 59.9773 409.768 59.928 410.052 59.8295C410.34 59.7273 410.588 59.5758 410.796 59.375C411.005 59.1705 411.166 58.9167 411.279 58.6136L412.575 58.9773C412.439 59.4167 412.209 59.803 411.887 60.1364C411.565 60.4659 411.168 60.7235 410.694 60.9091C410.221 61.0909 409.689 61.1818 409.098 61.1818ZM415.808 61.0909C415.528 61.0909 415.287 60.9905 415.087 60.7898C414.886 60.589 414.786 60.3485 414.786 60.0682C414.786 59.7879 414.886 59.5473 415.087 59.3466C415.287 59.1458 415.528 59.0455 415.808 59.0455C416.089 59.0455 416.329 59.1458 416.53 59.3466C416.731 59.5473 416.831 59.7879 416.831 60.0682C416.831 60.2538 416.784 60.4242 416.689 60.5795C416.598 60.7348 416.475 60.8598 416.32 60.9545C416.168 61.0455 415.998 61.0909 415.808 61.0909Z" fill="#A16207"/>
<defs>
<clipPath id="clip0_26099_63663">
<rect width="16" height="16" fill="white" transform="translate(16 19)"/>
</clipPath>
</defs>
</svg>
